<svg width="32" height="32" viewBox="0 0 32 32" fill="none" xmlns="http://www.w3.org/2000/svg">
<path d="M7.38125 2.06875C6.575 2.225 5.7125 2.89375 5.34375 3.65C5.225 3.89375 5.09375 4.24375 5.0625 4.43125C5.025 4.64375 5 8.1625 5 14.1313V23.5H16H27V14.1313C27 8.025 26.975 4.65 26.9375 4.43125C26.775 3.56875 26.1313 2.725 25.35 2.34375C25.1063 2.225 24.7563 2.09375 24.5688 2.0625C24.15 1.9875 7.78125 1.9875 7.38125 2.06875ZM18.0375 4.1625C18.3688 4.40625 18.4688 4.60625 18.4688 5C18.4688 5.39375 18.3688 5.59375 18.0375 5.8375C17.875 5.9625 17.7688 5.96875 16.1375 5.9875C15.025 6 14.325 5.98125 14.175 5.94375C13.5437 5.75625 13.3 4.8875 13.7312 4.36875C14.0375 4.0125 14.1062 4 16.075 4.01875C17.775 4.03125 17.875 4.0375 18.0375 4.1625ZM16.3125 11.0625C16.4812 11.1063 16.9313 11.525 18.2312 12.825C19.6938 14.2938 19.9313 14.5625 19.9688 14.7625C20.0375 15.1438 19.95 15.4375 19.6938 15.6938C19.4375 15.95 19.1438 16.0375 18.7688 15.9688C18.575 15.9375 18.3875 15.7813 17.7688 15.1688L17.0063 14.4188L16.9875 16.8938C16.9688 19.2813 16.9625 19.375 16.8375 19.5375C16.5938 19.8688 16.3938 19.9688 16 19.9688C15.6062 19.9688 15.4062 19.8688 15.1625 19.5375C15.0375 19.375 15.0312 19.2813 15.0125 16.8938L14.9938 14.4188L14.2312 15.1688C13.4125 15.9813 13.2625 16.0625 12.7688 15.9688C12.4625 15.9125 12.0875 15.5375 12.0312 15.2313C11.925 14.6813 11.9375 14.6688 13.7688 12.825C15.65 10.9375 15.7125 10.8938 16.3125 11.0625Z" fill="#F6A000"/>
<path d="M5 26.425C5 27.05 5.03125 27.4687 5.09375 27.7187C5.375 28.7937 6.2125 29.625 7.29375 29.9062C7.8375 30.05 24.1688 30.0437 24.7188 29.9062C25.7938 29.625 26.625 28.7875 26.9062 27.7062C26.9688 27.4687 27 27.0437 27 26.425V25.5H16H5V26.425Z" fill="#F6A000"/>
</svg>
