<svg width="32" height="32" viewBox="0 0 32 32" fill="none" xmlns="http://www.w3.org/2000/svg">
<path d="M14.901 2.03368C12.7912 2.27611 11.4768 2.63974 9.8456 3.44109C7.95152 4.37038 6.35401 5.65657 5.03961 7.29967C4.29816 8.23569 3.57692 9.41414 3.18597 10.3569L3.07812 10.6128H6.54275H10.0074L10.0815 10.2222C10.978 5.72391 12.8586 2.74075 15.2043 2.08756C15.4537 2.02022 15.4739 2.00675 15.3054 2.00675C15.1976 2.01348 15.0156 2.02695 14.901 2.03368Z" fill="#F6A000"/>
<path d="M16.8537 2.09429C18.6602 2.60607 20.1633 4.47139 21.2081 7.48822L21.5249 8.41751L22.0978 8.55219C23.0685 8.79461 23.8706 9.41414 24.275 10.2424L24.457 10.6128H26.7084H28.9529L28.8451 10.3569C28.0834 8.53872 26.5264 6.49159 24.8749 5.14479C23.7493 4.22897 22.0304 3.25927 20.7093 2.80809C19.5499 2.40405 18.2018 2.12123 17.029 2.03368L16.5234 2.00001L16.8537 2.09429Z" fill="#F6A000"/>
<path d="M15.5046 4.2559C14.6216 4.57913 13.5701 6.13469 12.8893 8.12122C12.6601 8.79461 12.2422 10.3502 12.2422 10.5253C12.2422 10.5926 12.896 10.6128 15.2956 10.6128H18.3424L18.5446 10.229C18.6524 10.0202 18.9018 9.67677 19.0973 9.46128L19.4613 9.07744L19.1849 8.25589C18.5109 6.24243 17.547 4.74075 16.6437 4.31651C16.3067 4.15489 15.8416 4.12796 15.5046 4.2559Z" fill="#F6A000"/>
<path d="M20.9708 10.7072C20.29 11.0035 20.1282 11.9059 20.6607 12.4379C21.4157 13.1988 22.6559 12.5187 22.4605 11.4547C22.3391 10.8217 21.5775 10.4379 20.9708 10.7072Z" fill="#F6A000"/>
<path d="M2.36674 12.8485C2.29259 13.0774 2.12408 14.0875 2.06341 14.6532C1.93534 15.9124 2.00275 17.367 2.25215 18.6128L2.37348 19.1986L4.97531 19.2188L7.57715 19.2323L7.76589 18.8485C8.0018 18.3569 8.64889 17.7104 9.14769 17.4613L9.52516 17.2727L9.57234 15.5084C9.59257 14.5387 9.63301 13.5219 9.65323 13.2525L9.70041 12.7677H6.04706C3.18908 12.7677 2.38696 12.7879 2.36674 12.8485Z" fill="#F6A000"/>
<path d="M11.8716 12.9158C11.7975 13.2323 11.7031 15.0707 11.7031 16.1414V17.266L12.0941 17.4545C12.5929 17.6969 13.24 18.3434 13.4826 18.8417L13.6714 19.2323H16.9001H20.1288L20.1625 19.0774C20.2299 18.7475 20.331 16.8889 20.331 15.8451V14.734L19.9468 14.5454C19.4412 14.303 18.7941 13.6566 18.5515 13.1515L18.3628 12.7677H15.134H11.9053L11.8716 12.9158Z" fill="#F6A000"/>
<path d="M24.2705 13.1515C24.0345 13.6498 23.3807 14.303 22.8887 14.5454L22.5112 14.7273L22.464 16.4916C22.4438 17.4613 22.4033 18.4781 22.3831 18.7407L22.3359 19.2323H25.9826C27.9845 19.2323 29.6427 19.2121 29.6561 19.1784C29.6764 19.1515 29.7572 18.734 29.8449 18.2559C29.9729 17.5286 29.9999 17.1448 29.9999 16C29.9999 14.8552 29.9729 14.4714 29.8449 13.7441C29.7572 13.2592 29.6764 12.8485 29.6561 12.8148C29.6427 12.7879 28.4631 12.7677 27.0476 12.7677H24.4592L24.2705 13.1515Z" fill="#F6A000"/>
<path d="M10.1896 19.3266C9.50877 19.6229 9.347 20.5252 9.8795 21.0572C10.3176 21.4949 10.9378 21.4949 11.3759 21.0572C12.2117 20.2222 11.2748 18.8552 10.1896 19.3266Z" fill="#F6A000"/>
<path d="M3.18597 21.6364C3.94765 23.468 5.47775 25.4748 7.13591 26.835C9.3468 28.633 12.1778 29.7643 15.0021 29.9663L15.5076 30L15.1773 29.9057C13.3709 29.3939 11.8678 27.5286 10.823 24.5118L10.4994 23.5758L10.0276 23.468C9.76471 23.4074 9.3805 23.2727 9.15807 23.1717C8.65253 22.9226 8.00544 22.2761 7.76278 21.7711L7.57405 21.3872H5.32272H3.07812L3.18597 21.6364Z" fill="#F6A000"/>
<path d="M13.487 21.771C13.3792 21.9797 13.1298 22.3232 12.9343 22.5386L12.5703 22.9225L12.8467 23.7508C13.5207 25.7642 14.4711 27.239 15.3878 27.6901C15.7249 27.8585 16.3046 27.8585 16.6416 27.6901C17.5313 27.2524 18.4885 25.7844 19.1356 23.8787C19.3647 23.2053 19.7894 21.6498 19.7894 21.4679C19.7894 21.4073 19.1356 21.3871 16.7427 21.3871H13.6892L13.487 21.771Z" fill="#F6A000"/>
<path d="M21.9496 21.7711C21.0463 26.2559 19.1657 29.2525 16.8537 29.9057L16.5234 30L17.029 29.9663C20.8306 29.6902 24.4503 27.8182 26.8701 24.8552C27.6318 23.9259 28.4609 22.5724 28.8451 21.6364L28.9529 21.3872H25.4883H22.0237L21.9496 21.7711Z" fill="#F6A000"/>
</svg>
